<svg width="121" height="121" viewBox="0 0 121 121" fill="none" xmlns="http://www.w3.org/2000/svg">
<rect width="121" height="121" rx="28" fill="#6FCF97"/>
<mask id="path-2-outside-1_1143_1140" maskUnits="userSpaceOnUse" x="20" y="33" width="82" height="57" fill="black">
<rect fill="white" x="20" y="33" width="82" height="57"/>
<path d="M63.1806 47.4361C63.1806 48.1896 62.8381 48.9431 62.2902 49.6965C59.4133 53.3269 56.8104 57.5737 54.4815 62.437C52.7006 66.1358 50.9197 69.7662 49.2072 73.465C47.1523 77.7119 45.2344 81.2737 43.4535 84.0821C41.9465 86.411 40.6451 87.6439 39.5491 87.6439C38.3162 87.6439 36.9462 86.3425 35.5078 83.8081C32.0829 78.0543 29.1376 71.5471 26.6717 64.1494C23.8633 55.9298 22.4934 49.0116 22.4934 43.3948C22.4934 38.189 23.4523 35.5176 25.4387 35.5176C26.6032 35.5176 27.4936 35.9971 28.0416 36.9561C29.5486 39.696 30.302 43.1208 30.302 47.2306C30.302 49.2856 29.754 50.7925 28.7951 51.6145C31.261 62.163 34.8913 71.5471 39.6861 79.8353C42.6315 73.739 47.2893 64.6289 53.6595 52.5049C53.9335 50.861 54.6185 49.4225 55.646 48.1896C57.7009 45.6552 59.2763 44.3538 60.5092 44.3538C62.2902 44.3538 63.1806 45.3812 63.1806 47.4361ZM99.0742 79.9038C99.0742 81.2052 98.1152 82.4382 96.2658 83.6026C94.3479 84.8355 91.882 85.863 88.7996 86.7535C85.8542 87.5754 83.5253 87.9864 81.8814 87.9864C77.2236 87.9864 73.6618 86.137 71.1959 82.5751C69.1409 79.4243 68.1135 75.246 68.1135 70.1087C68.1135 62.7795 69.8944 55.7243 73.5248 48.8746C77.6346 41.2029 82.6349 37.3671 88.3886 37.3671C89.8271 37.3671 91.471 37.915 93.2519 39.011C94.8274 40.0384 96.1288 41.2029 97.0878 42.4358C98.0467 43.6688 98.5947 44.7647 98.5947 45.7237C98.5947 46.6142 98.2522 47.3676 97.7042 47.9156C97.0193 48.5321 96.2658 48.8061 95.4438 48.8061C94.6219 48.8061 93.5259 47.9841 92.019 46.2717C90.512 44.6277 89.0051 43.7373 87.4982 43.7373C84.4843 43.7373 81.4704 46.7512 78.5251 52.7104C75.5797 58.7382 74.1412 64.7659 74.1412 70.7251C74.1412 78.1228 76.7441 81.7532 81.9499 81.7532C85.2378 81.7532 89.0736 80.5202 93.3889 77.9858C94.7589 77.1639 95.6493 76.6844 95.9918 76.6844C96.6768 76.6844 97.3618 77.0269 98.0467 77.7119C98.7317 78.3968 99.0742 79.1503 99.0742 79.9038Z"/>
</mask>
<path d="M63.1806 47.4361C63.1806 48.1896 62.8381 48.9431 62.2902 49.6965C59.4133 53.3269 56.8104 57.5737 54.4815 62.437C52.7006 66.1358 50.9197 69.7662 49.2072 73.465C47.1523 77.7119 45.2344 81.2737 43.4535 84.0821C41.9465 86.411 40.6451 87.6439 39.5491 87.6439C38.3162 87.6439 36.9462 86.3425 35.5078 83.8081C32.0829 78.0543 29.1376 71.5471 26.6717 64.1494C23.8633 55.9298 22.4934 49.0116 22.4934 43.3948C22.4934 38.189 23.4523 35.5176 25.4387 35.5176C26.6032 35.5176 27.4936 35.9971 28.0416 36.9561C29.5486 39.696 30.302 43.1208 30.302 47.2306C30.302 49.2856 29.754 50.7925 28.7951 51.6145C31.261 62.163 34.8913 71.5471 39.6861 79.8353C42.6315 73.739 47.2893 64.6289 53.6595 52.5049C53.9335 50.861 54.6185 49.4225 55.646 48.1896C57.7009 45.6552 59.2763 44.3538 60.5092 44.3538C62.2902 44.3538 63.1806 45.3812 63.1806 47.4361ZM99.0742 79.9038C99.0742 81.2052 98.1152 82.4382 96.2658 83.6026C94.3479 84.8355 91.882 85.863 88.7996 86.7535C85.8542 87.5754 83.5253 87.9864 81.8814 87.9864C77.2236 87.9864 73.6618 86.137 71.1959 82.5751C69.1409 79.4243 68.1135 75.246 68.1135 70.1087C68.1135 62.7795 69.8944 55.7243 73.5248 48.8746C77.6346 41.2029 82.6349 37.3671 88.3886 37.3671C89.8271 37.3671 91.471 37.915 93.2519 39.011C94.8274 40.0384 96.1288 41.2029 97.0878 42.4358C98.0467 43.6688 98.5947 44.7647 98.5947 45.7237C98.5947 46.6142 98.2522 47.3676 97.7042 47.9156C97.0193 48.5321 96.2658 48.8061 95.4438 48.8061C94.6219 48.8061 93.5259 47.9841 92.019 46.2717C90.512 44.6277 89.0051 43.7373 87.4982 43.7373C84.4843 43.7373 81.4704 46.7512 78.5251 52.7104C75.5797 58.7382 74.1412 64.7659 74.1412 70.7251C74.1412 78.1228 76.7441 81.7532 81.9499 81.7532C85.2378 81.7532 89.0736 80.5202 93.3889 77.9858C94.7589 77.1639 95.6493 76.6844 95.9918 76.6844C96.6768 76.6844 97.3618 77.0269 98.0467 77.7119C98.7317 78.3968 99.0742 79.1503 99.0742 79.9038Z" fill="#14274A"/>
<path d="M62.2902 49.6965L63.8577 50.9387L63.8833 50.9063L63.9076 50.8729L62.2902 49.6965ZM54.4815 62.437L56.2835 63.3046L56.2853 63.3008L54.4815 62.437ZM49.2072 73.465L51.0075 74.3362L51.015 74.3208L51.0222 74.3053L49.2072 73.465ZM43.4535 84.0821L45.1326 85.1686L45.1376 85.1609L45.1425 85.1532L43.4535 84.0821ZM35.5078 83.8081L37.2472 82.8209L37.237 82.8029L37.2264 82.7851L35.5078 83.8081ZM26.6717 64.1494L28.569 63.517L28.5667 63.5099L28.5643 63.5028L26.6717 64.1494ZM28.0416 36.9561L29.794 35.9922L29.7862 35.978L29.7781 35.9638L28.0416 36.9561ZM28.7951 51.6145L27.4935 50.0959L26.571 50.8866L26.8476 52.0697L28.7951 51.6145ZM39.6861 79.8353L37.9549 80.8368L39.845 84.1038L41.487 80.7053L39.6861 79.8353ZM53.6595 52.5049L55.43 53.4352L55.5795 53.1507L55.6323 52.8337L53.6595 52.5049ZM55.646 48.1896L57.1824 49.47L57.191 49.4596L57.1995 49.4492L55.646 48.1896ZM61.1806 47.4361C61.1806 47.5834 61.1077 47.922 60.6727 48.5202L63.9076 50.8729C64.5686 49.9641 65.1806 48.7958 65.1806 47.4361H61.1806ZM60.7227 48.4544C57.7395 52.2188 55.0608 56.5967 52.6777 61.5732L56.2853 63.3008C58.5601 58.5507 61.0871 54.4349 63.8577 50.9387L60.7227 48.4544ZM52.6795 61.5694C50.907 65.2507 49.1132 68.9076 47.3923 72.6248L51.0222 74.3053C52.7261 70.6248 54.4941 67.021 56.2835 63.3046L52.6795 61.5694ZM47.4069 72.5939C45.3699 76.8037 43.4892 80.2912 41.7644 83.011L45.1425 85.1532C46.9796 82.2562 48.9347 78.62 51.0075 74.3362L47.4069 72.5939ZM41.7743 82.9956C41.0626 84.0955 40.4663 84.8286 39.9922 85.2653C39.481 85.7361 39.3519 85.6439 39.5491 85.6439V89.6439C40.8423 89.6439 41.9119 88.9353 42.7021 88.2074C43.5295 87.4454 44.3374 86.3976 45.1326 85.1686L41.7743 82.9956ZM39.5491 85.6439C39.6575 85.6439 39.4769 85.6953 38.9825 85.226C38.5052 84.7728 37.9166 84.0004 37.2472 82.8209L33.7684 84.7953C34.5374 86.1502 35.353 87.2957 36.2285 88.1269C37.087 88.9418 38.2078 89.6439 39.5491 89.6439V85.6439ZM37.2264 82.7851C33.8833 77.1688 30.995 70.7948 28.569 63.517L24.7743 64.7819C27.2801 72.2994 30.2826 78.9399 33.7892 84.8311L37.2264 82.7851ZM28.5643 63.5028C25.795 55.3977 24.4934 48.7107 24.4934 43.3948H20.4934C20.4934 49.3124 21.9316 56.4618 24.7791 64.7961L28.5643 63.5028ZM24.4934 43.3948C24.4934 40.8579 24.7346 39.1768 25.0968 38.1983C25.2732 37.7217 25.4302 37.5463 25.4772 37.504C25.4941 37.4889 25.4876 37.4986 25.4599 37.5092C25.4319 37.52 25.4191 37.5176 25.4387 37.5176V33.5176C24.4451 33.5176 23.5375 33.8694 22.8038 34.5287C22.1123 35.15 21.6571 35.9678 21.3455 36.8098C20.7316 38.4684 20.4934 40.7259 20.4934 43.3948H24.4934ZM25.4387 37.5176C25.9601 37.5176 26.1488 37.6748 26.3051 37.9484L29.7781 35.9638C28.8385 34.3195 27.2462 33.5176 25.4387 33.5176V37.5176ZM26.2892 37.9199C27.5906 40.2861 28.302 43.3553 28.302 47.2306H32.302C32.302 42.8863 31.5065 39.1058 29.794 35.9922L26.2892 37.9199ZM28.302 47.2306C28.302 49.0105 27.8188 49.8171 27.4935 50.0959L30.0967 53.133C31.6893 51.7679 32.302 49.5606 32.302 47.2306H28.302ZM26.8476 52.0697C29.3529 62.7869 33.0503 72.3588 37.9549 80.8368L41.4173 78.8338C36.7323 70.7354 33.169 61.5391 30.7426 51.1592L26.8476 52.0697ZM41.487 80.7053C44.4171 74.6407 49.062 65.555 55.43 53.4352L51.889 51.5747C45.5166 63.7028 40.8459 72.8373 37.8853 78.9652L41.487 80.7053ZM55.6323 52.8337C55.8458 51.5529 56.3739 50.4402 57.1824 49.47L54.1095 46.9092C52.8631 48.4049 52.0212 50.1691 51.6867 52.1761L55.6323 52.8337ZM57.1995 49.4492C58.1895 48.2282 58.9921 47.3961 59.6332 46.8846C60.3145 46.3411 60.5723 46.3538 60.5092 46.3538V42.3538C59.2132 42.3538 58.0669 43.0172 57.1385 43.7579C56.1698 44.5308 55.1573 45.6166 54.0924 46.93L57.1995 49.4492ZM60.5092 46.3538C60.7668 46.3538 60.9036 46.3914 60.96 46.4131C60.9869 46.4234 60.9976 46.4309 60.9987 46.4316C60.9994 46.4321 60.9994 46.4319 61.0014 46.4342C61.0047 46.438 61.1806 46.6524 61.1806 47.4361H65.1806C65.1806 46.165 64.9114 44.8382 64.0242 43.8145C63.0895 42.7361 61.7885 42.3538 60.5092 42.3538V46.3538ZM96.2658 83.6026L95.2002 81.9101L95.1922 81.9152L95.1843 81.9202L96.2658 83.6026ZM88.7996 86.7535L89.3372 88.6799L89.346 88.6774L89.3547 88.6749L88.7996 86.7535ZM71.1959 82.5751L69.5206 83.6677L69.5357 83.6908L69.5515 83.7136L71.1959 82.5751ZM73.5248 48.8746L71.7618 47.9301L71.7576 47.938L73.5248 48.8746ZM93.2519 39.011L94.3445 37.3358L94.3225 37.3214L94.3001 37.3077L93.2519 39.011ZM97.0878 42.4358L98.6665 41.208L98.6665 41.208L97.0878 42.4358ZM97.7042 47.9156L99.0422 49.4022L99.0813 49.367L99.1184 49.3298L97.7042 47.9156ZM92.019 46.2717L93.5204 44.9504L93.507 44.9352L93.4933 44.9202L92.019 46.2717ZM78.5251 52.7104L76.7321 51.8242L76.7281 51.8324L78.5251 52.7104ZM93.3889 77.9858L94.4018 79.7104L94.4099 79.7057L94.4179 79.7008L93.3889 77.9858ZM98.0467 77.7119L99.4609 76.2976L99.4609 76.2976L98.0467 77.7119ZM97.0742 79.9038C97.0742 80.1294 96.8989 80.8406 95.2002 81.9101L97.3314 85.2951C99.3316 84.0357 101.074 82.281 101.074 79.9038H97.0742ZM95.1843 81.9202C93.4869 83.0115 91.2204 83.9723 88.2445 84.832L89.3547 88.6749C92.5435 87.7537 95.2089 86.6596 97.3473 85.285L95.1843 81.9202ZM88.262 84.8271C85.3733 85.6332 83.252 85.9864 81.8814 85.9864V89.9864C83.7987 89.9864 86.3352 89.5176 89.3372 88.6799L88.262 84.8271ZM81.8814 85.9864C77.8455 85.9864 74.9134 84.4313 72.8402 81.4367L69.5515 83.7136C72.4101 87.8427 76.6018 89.9864 81.8814 89.9864V85.9864ZM72.8711 81.4826C71.0937 78.7573 70.1135 74.9986 70.1135 70.1087H66.1135C66.1135 75.4933 67.1882 80.0913 69.5206 83.6677L72.8711 81.4826ZM70.1135 70.1087C70.1135 63.1204 71.8076 56.3853 75.2919 49.8112L71.7576 47.938C67.9812 55.0632 66.1135 62.4386 66.1135 70.1087H70.1135ZM75.2877 49.819C79.2396 42.4422 83.7025 39.3671 88.3886 39.3671V35.3671C81.5673 35.3671 76.0296 39.9635 71.7618 47.9301L75.2877 49.819ZM88.3886 39.3671C89.3328 39.3671 90.6122 39.7349 92.2037 40.7143L94.3001 37.3077C92.3298 36.0952 90.3214 35.3671 88.3886 35.3671V39.3671ZM92.1594 40.6862C93.5839 41.6152 94.7096 42.6358 95.5091 43.6637L98.6665 41.208C97.548 39.77 96.0709 38.4617 94.3445 37.3358L92.1594 40.6862ZM95.5091 43.6637C96.4105 44.8227 96.5947 45.4652 96.5947 45.7237H100.595C100.595 44.0643 99.6829 42.5148 98.6665 41.208L95.5091 43.6637ZM96.5947 45.7237C96.5947 46.073 96.4706 46.3208 96.29 46.5014L99.1184 49.3298C100.034 48.4144 100.595 47.1553 100.595 45.7237H96.5947ZM96.3663 46.429C96.0437 46.7194 95.7652 46.8061 95.4438 46.8061V50.8061C96.7664 50.8061 97.9948 50.3448 99.0422 49.4022L96.3663 46.429ZM95.4438 46.8061C95.6723 46.8061 95.62 46.9015 95.1805 46.5752C94.7782 46.2765 94.2341 45.7614 93.5204 44.9504L90.5176 47.5929C91.3108 48.4944 92.0682 49.2464 92.7961 49.7869C93.4867 50.2996 94.3934 50.8061 95.4438 50.8061V46.8061ZM93.4933 44.9202C91.8319 43.1078 89.8285 41.7373 87.4982 41.7373V45.7373C88.1817 45.7373 89.1922 46.1477 90.5447 47.6231L93.4933 44.9202ZM87.4982 41.7373C85.2751 41.7373 83.2894 42.8572 81.5717 44.5749C79.8576 46.289 78.2533 48.7465 76.7321 51.8242L80.318 53.5966C81.7422 50.7151 83.1175 48.686 84.4001 47.4033C85.6792 46.1243 86.7074 45.7373 87.4982 45.7373V41.7373ZM76.7281 51.8324C73.6618 58.1075 72.1412 64.4339 72.1412 70.7251H76.1412C76.1412 65.0979 77.4975 59.3688 80.322 53.5885L76.7281 51.8324ZM72.1412 70.7251C72.1412 74.5965 72.811 77.8458 74.4629 80.1714C76.2056 82.625 78.8227 83.7532 81.9499 83.7532V79.7532C79.8714 79.7532 78.5841 79.0661 77.724 77.8551C76.7729 76.5162 76.1412 74.2515 76.1412 70.7251H72.1412ZM81.9499 83.7532C85.7212 83.7532 89.9118 82.3474 94.4018 79.7104L92.3761 76.2613C88.2354 78.6931 84.7543 79.7532 81.9499 79.7532V83.7532ZM94.4179 79.7008C95.0969 79.2934 95.6125 78.9981 95.984 78.8087C96.1709 78.7134 96.284 78.6643 96.3398 78.6432C96.3664 78.6332 96.3555 78.6389 96.3157 78.6487C96.2848 78.6563 96.1659 78.6844 95.9918 78.6844V74.6844C95.5276 74.6844 95.126 74.8259 94.9267 74.9011C94.6764 74.9956 94.4171 75.1177 94.1673 75.2451C93.6655 75.5009 93.0509 75.8563 92.3599 76.2709L94.4179 79.7008ZM95.9918 78.6844C95.9946 78.6844 96.003 78.6845 96.0205 78.6889C96.0388 78.6935 96.0732 78.7043 96.1248 78.7301C96.2319 78.7836 96.4037 78.8972 96.6325 79.1261L99.4609 76.2976C98.558 75.3947 97.3943 74.6844 95.9918 74.6844V78.6844ZM96.6325 79.1261C97.0339 79.5275 97.0742 79.7975 97.0742 79.9038H101.074C101.074 78.5031 100.429 77.2662 99.4609 76.2976L96.6325 79.1261Z" fill="#14274A" mask="url(#path-2-outside-1_1143_1140)"/>
</svg>
